<svg version="1.2" xmlns="http://www.w3.org/2000/svg" viewBox="0 0 364 52" width="364" height="52">
	<title>logo-2x</title>
	<style>
		.s0 { fill: #212121 } 
	</style>
	<path id="PressMart." class="s0" aria-label="PressMart."  d="m14.4 23.9v-12.3h6.1c4.5 0 6.5 2.4 6.5 6.2 0 3.7-2 6.1-6.5 6.1zm24.1-6.1c0-9.1-5.7-15.8-17-15.8h-18.4v49h11.3v-17.6h7.1c11.8 0 17-7.5 17-15.6zm17.3 15.1c0-6.7 3.1-8.6 8.4-8.6h3.2v-12.7c-5 0-9 2.8-11.6 6.9v-6.5h-11.4v39h11.4zm33.3-11.9c3.8 0 6.9 2.5 6.9 6.7h-14.1c0.6-4.3 3.5-6.7 7.2-6.7zm17.7 17.1h-12.1c-0.9 2.1-2.7 3.7-5.9 3.7-3.6 0-6.6-2.3-7-7.4h25.6c0.2-1.2 0.2-2.4 0.2-3.5 0-11.9-7.6-19.4-18.4-19.4-11 0-18.7 7.6-18.7 20 0 12.4 7.9 20 18.7 20 9.2 0 15.8-5.8 17.6-13.4zm36.8 1.6c-0.2-14.6-20.2-10.2-20.2-16.4 0-1.9 1.5-3 4.1-3 3.2 0 5.1 1.8 5.4 4.4h10.5c-0.7-7.7-6-13.2-15.6-13.2-9.6 0-15 5.4-15 12 0 14.4 20.1 9.8 20.1 16.1 0 1.8-1.5 3.1-4.4 3.1-3.1 0-5.4-1.8-5.7-4.5h-11.2c0.5 7.6 7.2 13.3 17 13.3 9.3 0 15-5.1 15-11.8zm37 0c-0.2-14.6-20.2-10.2-20.2-16.4 0-1.9 1.4-3 4.1-3 3.1 0 5.1 1.8 5.4 4.4h10.5c-0.8-7.7-6.1-13.2-15.6-13.2-9.7 0-15 5.4-15 12 0 14.4 20.1 9.8 20.1 16.1 0 1.8-1.5 3.1-4.4 3.1-3.2 0-5.5-1.8-5.7-4.5h-11.2c0.5 7.6 7.1 13.3 17 13.3 9.3 0 15-5.1 15-11.8zm6.9 11.3h11.3v-29.5l10.5 29.5h9.2l10.4-29.4v29.4h11.3v-49h-13.3l-13 33.9-13-33.9h-13.4zm58.6-19.6c0 12.3 7.2 20.1 16.2 20.1 5.5 0 9.4-2.6 11.5-6.1v5.6h11.3v-39h-11.3v5.5c-2-3.4-5.9-6.1-11.4-6.1-9.1 0-16.3 7.7-16.3 20zm27.7 0.1c0 6.2-3.8 9.6-8.1 9.6-4.3 0-8.1-3.5-8.1-9.7 0-6.2 3.8-9.6 8.1-9.6 4.3 0 8.1 3.5 8.1 9.7zm30.8 1.4c0-6.7 3.1-8.7 8.5-8.7h3.1v-12.6c-4.9 0-9 2.8-11.6 6.9v-6.5h-11.3v39h11.3zm18.8 4.5c0 10.1 5.4 13.5 13.1 13.5h5.8v-10.1h-4.1c-2.5 0-3.4-1-3.4-3.3v-15.6h7.4v-9.9h-7.4v-9.5h-11.4v9.5h-4.5v9.9h4.5zm37.1 7.7c0-3.7-2.7-6.6-6.7-6.6-4 0-6.7 2.9-6.7 6.6 0 3.5 2.7 6.4 6.7 6.4 4 0 6.7-2.9 6.7-6.4z"/>
</svg>